<svg width="538" height="173" viewBox="0 0 538 173" fill="none" xmlns="http://www.w3.org/2000/svg">
<path d="M202.42 127.386L187.674 100.621H183.533V127.386H166.262V56.4835H195.249C200.838 56.4835 205.585 57.4598 209.49 59.4125C213.463 61.3652 216.425 64.0585 218.378 67.4925C220.331 70.8592 221.307 74.6298 221.307 78.8045C221.307 83.5178 219.96 87.7262 217.267 91.4295C214.641 95.1328 210.736 97.7588 205.551 99.3075L221.913 127.386H202.42ZM183.533 88.3995H194.239C197.404 88.3995 199.76 87.6252 201.309 86.0765C202.925 84.5278 203.733 82.3395 203.733 79.5115C203.733 76.8182 202.925 74.6972 201.309 73.1485C199.76 71.5998 197.404 70.8255 194.239 70.8255H183.533V88.3995Z" fill="black"/>
<path d="M265.681 128.093C259.015 128.093 252.887 126.544 247.299 123.447C241.777 120.349 237.367 116.04 234.068 110.519C230.836 104.93 229.22 98.6678 229.22 91.7325C229.22 84.7972 230.836 78.5688 234.068 73.0475C237.367 67.5262 241.777 63.2168 247.299 60.1195C252.887 57.0222 259.015 55.4735 265.681 55.4735C272.347 55.4735 278.44 57.0222 283.962 60.1195C289.55 63.2168 293.927 67.5262 297.092 73.0475C300.324 78.5688 301.94 84.7972 301.94 91.7325C301.94 98.6678 300.324 104.93 297.092 110.519C293.86 116.04 289.483 120.349 283.962 123.447C278.44 126.544 272.347 128.093 265.681 128.093ZM265.681 112.337C271.337 112.337 275.848 110.451 279.215 106.681C282.649 102.91 284.366 97.9272 284.366 91.7325C284.366 85.4705 282.649 80.4878 279.215 76.7845C275.848 73.0138 271.337 71.1285 265.681 71.1285C259.957 71.1285 255.379 72.9802 251.945 76.6835C248.578 80.3868 246.895 85.4032 246.895 91.7325C246.895 97.9945 248.578 103.011 251.945 106.782C255.379 110.485 259.957 112.337 265.681 112.337Z" fill="black"/>
<path d="M372.956 56.4835V127.386H355.685V98.1965H328.819V127.386H311.548V56.4835H328.819V84.2585H355.685V56.4835H372.956Z" fill="black"/>
<path d="M465.719 56.4835V127.386H448.448V84.8645L432.591 127.386H418.653L402.695 84.7635V127.386H385.424V56.4835H405.826L425.723 105.57L445.418 56.4835H465.719Z" fill="black"/>
<path d="M495.107 56.4835V98.9035C495.107 103.146 496.151 106.411 498.238 108.701C500.325 110.99 503.389 112.135 507.429 112.135C511.469 112.135 514.566 110.99 516.721 108.701C518.876 106.411 519.953 103.146 519.953 98.9035V56.4835H537.224V98.8025C537.224 105.132 535.877 110.485 533.184 114.862C530.491 119.238 526.855 122.538 522.276 124.76C517.765 126.982 512.715 128.093 507.126 128.093C501.537 128.093 496.521 127.015 492.077 124.861C487.7 122.639 484.233 119.339 481.674 114.963C479.115 110.519 477.836 105.132 477.836 98.8025V56.4835H495.107Z" fill="black"/>
<mask id="mask0_7_191" style="mask-type:alpha" maskUnits="userSpaceOnUse" x="23" y="18" width="109" height="132">
<path d="M98.4936 18.4735C27.8881 25.7174 18.3114 86.5121 24.6258 113.512C35.4985 151.512 70.0111 149.005 90.344 149.773C140.147 142.529 142.864 86.3873 110.55 57.4306C89.5692 38.6293 93.0605 25.7176 98.4936 18.4735Z" fill="white"/>
</mask>
<g mask="url(#mask0_7_191)">
<path d="M47.163 62.0528C47.1844 61.9657 47.2061 61.8844 47.2315 61.7984C47.629 60.4518 51.1625 48.5569 52.0382 48.2689C54.1138 47.5863 56.4624 60.0568 61.7244 59.1915C65.8757 58.5088 70.3472 58.5088 72.7944 58.5088C74.8803 58.5088 81.4705 58.5703 85.2481 59.1915C89.3994 59.8741 91.475 49.6343 92.8588 49.6343C94.234 49.6343 98.3427 61.771 98.3933 61.9207C98.3949 61.9253 98.3945 61.9244 98.3961 61.9291L124.451 139.679C125.649 143.254 123.292 147.034 119.555 147.533L76.3716 153.29C75.8343 153.362 75.2897 153.361 74.7528 153.286L33.0235 147.487C29.5011 146.997 27.1751 143.569 28.022 140.115L47.163 62.0528Z" fill="white"/>
<path d="M98.4936 18.4735C27.8881 25.7174 18.3114 86.5121 24.6258 113.512C35.4985 151.512 70.0111 149.005 90.344 149.773C140.147 142.529 145.314 85.9301 113 56.9735C92.0189 38.1722 93.0605 25.7176 98.4936 18.4735Z" fill="black"/>
<path d="M47.163 62.0528C47.1844 61.9657 47.2061 61.8845 47.2315 61.7985C47.629 60.4519 51.1625 48.557 52.0382 48.269C54.1138 47.5864 56.4624 60.0568 61.7244 59.1915C65.8757 58.5089 70.3472 58.5089 72.7944 58.5089C74.8803 58.5089 81.4705 58.5703 85.2481 59.1915C89.3994 59.8742 91.475 49.6343 92.8588 49.6343C94.234 49.6343 98.3427 61.7711 98.3933 61.9208C98.3949 61.9254 98.3945 61.9245 98.3961 61.9291L124.451 139.679C125.649 143.254 123.292 147.034 119.555 147.533L76.3716 153.291C75.8343 153.362 75.2897 153.361 74.7528 153.286L33.0235 147.487C29.5011 146.997 27.1751 143.569 28.022 140.115L47.163 62.0528Z" fill="white"/>
</g>
<path d="M80.2767 109.803C80.4253 107.61 82.2652 105.893 84.4715 105.89L85.7865 105.887C88.2077 105.883 90.5966 106.388 92.797 107.369L95.1661 108.426C97.2527 109.356 98.1755 111.796 97.2329 113.891L95.6197 117.476C94.0099 121.053 90.0881 123.017 86.2733 122.157V122.157C82.3882 121.281 79.7394 117.732 80.0083 113.763L80.2767 109.803Z" fill="black"/>
<path d="M58.3126 118.514C59.3626 114.508 62.7671 111.516 66.9214 111.339C72.5192 111.1 80.7211 111.191 88.3659 112.931C96.3952 114.76 103.714 118.558 108.454 121.434C111.916 123.534 113.321 127.672 112.29 131.607V131.607C110.856 137.075 105.244 140.415 99.7536 139.065L65.5362 130.655C60.1369 129.328 56.9028 123.892 58.3126 118.514V118.514Z" fill="black"/>
<path d="M74.7867 164.277C56.6386 151.328 55.7229 132.331 58.7324 124.551C79.8801 118.302 106.161 131.515 107.431 137.934C102.228 156.515 84.2995 163.305 74.7867 164.277Z" fill="#FFC83A"/>
<ellipse cx="56.6562" cy="85.7115" rx="2.41739" ry="4.83479" fill="black"/>
<ellipse cx="74.7867" cy="94.7767" rx="4.23044" ry="8.46087" transform="rotate(90 74.7867 94.7767)" fill="black"/>
<ellipse cx="91.1041" cy="85.7115" rx="3.02174" ry="4.83479" fill="black"/>
<rect x="75.9954" y="95.3811" width="7.25218" height="2.41739" rx="1.2087" transform="rotate(90 75.9954 95.3811)" fill="black"/>
<path d="M66.5681 131.077L56.4597 124.39C49.9903 124.39 50.17 132.09 51.0686 135.94C52.8656 136.345 58.077 136.912 64.5464 135.94C71.0158 134.967 68.5898 132.292 66.5681 131.077Z" fill="white" stroke="white"/>
<path d="M98.8972 137.999L108.621 137.854C114.293 141.126 112.5 140.474 108 143.748C104.5 144.974 103.07 147.966 97.9428 143.748C92.8159 139.53 96.4429 138.158 98.8972 137.999Z" fill="white" stroke="white"/>
</svg>
